<svg width="137" xmlns="http://www.w3.org/2000/svg" height="31" fill="none"><g data-testid="storigami" xml:space="preserve" style="fill: rgb(0, 0, 0);"><g data-testid="svg-g" style="fill: rgb(0, 0, 0);"><path d="M27.44 3.049h-9.918v12.196c0 .842-.705 1.525-1.575 1.525-.869 0-1.575-.683-1.575-1.525V3.049c0-1.672 1.422-3.049 3.15-3.049h9.918c1.728 0 3.15 1.377 3.15 3.049a3.01 3.01 0 0 1-1.1 2.314l-7.396 6.136a1.61 1.61 0 0 1-2.22-.164 1.492 1.492 0 0 1 .17-2.15l7.396-6.136Z" style="fillRule: evenodd; clipRule: evenodd; stroke-linejoin: round; stroke-miterlimit: 2;" class="fills" data-testid="svg-path"/><path d="M17.061 27.888a1.492 1.492 0 0 1 0 2.156 1.614 1.614 0 0 1-2.227 0L3.157 18.741a4.506 4.506 0 0 1-1.385-3.234V6.723c.008-1.668 1.43-3.037 3.153-3.037.83 0 1.629.317 2.22.883l.004.006 22.512 21.802a1.492 1.492 0 0 1 0 2.156 1.612 1.612 0 0 1-2.227 0S4.927 6.737 4.927 6.735h-.002l-.003.003v8.769c0 .404.167.792.462 1.078l11.677 11.303Z" style="fillRule: evenodd; clipRule: evenodd; stroke-linejoin: round; stroke-miterlimit: 2;" class="fills" data-testid="svg-path"/><path d="m3.15 24.421 3.9 3.02h19.272l1.839-1.773h.002L14.911 2.852a1.501 1.501 0 0 1 .601-2.076c.758-.412 1.719-.151 2.146.582L30.91 24.174a2.986 2.986 0 0 1-.525 3.656l-1.841 1.773a3.206 3.206 0 0 1-2.222.887H7.05c-.715 0-1.41-.234-1.969-.667l-3.899-3.02A3.015 3.015 0 0 1 0 24.421c0-1.672 1.421-3.049 3.15-3.049h.019l6.56.041c.87.006 1.572.694 1.566 1.534-.007.842-.717 1.522-1.585 1.515l-6.56-.041Z" style="fillRule: evenodd; clipRule: evenodd; stroke-linejoin: round; stroke-miterlimit: 2;" class="fills" data-testid="svg-path"/><g data-testid="svg-g" style="fill: rgb(0, 0, 0);"><path d="M43.093 19.242c.071.434.26.8.519 1.12.26.32.614.571 1.039.754.449.16.945.251 1.511.251.921 0 1.629-.205 2.078-.594.448-.411.685-.914.685-1.485 0-.457-.142-.846-.425-1.143-.284-.297-.685-.571-1.204-.777a18.87 18.87 0 0 0-1.771-.617c-.638-.183-1.251-.388-1.889-.594a7.504 7.504 0 0 1-1.676-.8 3.746 3.746 0 0 1-1.181-1.234c-.283-.526-.425-1.166-.425-1.943 0-.982.236-1.805.732-2.49.496-.686 1.181-1.212 2.054-1.554.874-.343 1.865-.526 2.999-.526.968 0 1.818.137 2.597.411.779.252 1.416.64 1.936 1.166.543.503.92 1.12 1.18 1.874l-2.951.777c-.071-.343-.26-.617-.519-.869-.26-.251-.591-.434-.992-.571a3.048 3.048 0 0 0-1.204-.229 3.058 3.058 0 0 0-1.299.206c-.401.16-.708.366-.944.663a1.544 1.544 0 0 0-.354 1.005c0 .435.142.777.401 1.029.26.251.614.457 1.063.64.448.16.944.342 1.487.502.637.183 1.299.389 1.96.64a7.58 7.58 0 0 1 1.841.892c.543.342.992.799 1.322 1.348.354.548.52 1.234.52 2.079 0 .892-.213 1.692-.661 2.4-.425.708-1.063 1.28-1.936 1.714-.874.434-1.96.64-3.258.64a9.124 9.124 0 0 1-2.928-.457 5.434 5.434 0 0 1-2.148-1.326 4.255 4.255 0 0 1-1.11-2.102l2.951-.8ZM54.544 12.34V9.141h3.045v3.199h2.621v2.583h-2.621v4.639c0 .594.142 1.005.401 1.257.26.251.591.366.992.388.401.023.826 0 1.228-.068v2.514c-.732.16-1.44.205-2.125.137-.685-.069-1.275-.229-1.818-.526-.543-.297-.968-.754-1.275-1.371-.307-.617-.448-1.394-.448-2.331v-4.639h-1.677V12.34h1.677ZM66.82 23.927c-1.157 0-2.172-.229-3.069-.709a5.424 5.424 0 0 1-2.125-2.033c-.495-.892-.755-1.92-.755-3.108 0-1.212.26-2.24.779-3.131a5.384 5.384 0 0 1 2.172-2.034c.921-.48 1.936-.732 3.069-.732s2.149.252 3.069.732a5.384 5.384 0 0 1 2.172 2.034c.543.868.803 1.896.803 3.085 0 1.211-.283 2.239-.826 3.131a5.5 5.5 0 0 1-2.196 2.056c-.921.48-1.936.709-3.093.709Zm-.023-2.628a2.98 2.98 0 0 0 1.393-.343 2.847 2.847 0 0 0 1.086-1.074c.283-.48.425-1.097.425-1.851 0-.709-.142-1.303-.402-1.783-.259-.48-.614-.845-1.062-1.074a2.7 2.7 0 0 0-1.393-.365c-.496 0-.944.114-1.369.365-.402.229-.732.594-.992 1.074-.26.48-.378 1.074-.378 1.829 0 .708.118 1.325.354 1.805.26.48.591.823.992 1.074.401.229.85.343 1.346.343ZM74.375 12.34h2.739l.212 1.463a4.856 4.856 0 0 1 1.11-.96 4.26 4.26 0 0 1 1.393-.525c.496-.115 1.039-.092 1.582.022v2.743a2.945 2.945 0 0 0-1.346-.114 3.43 3.43 0 0 0-1.298.479c-.402.252-.732.64-.992 1.12-.26.48-.378 1.074-.378 1.806v5.393h-3.022V12.34ZM82.851 12.34h3.022v11.427h-3.022V12.34Zm1.535-1.462c-.567 0-1.039-.183-1.393-.526a1.719 1.719 0 0 1-.543-1.257c0-.502.189-.914.543-1.257.354-.342.826-.525 1.393-.525.543 0 .991.183 1.345.525.378.343.567.755.567 1.257 0 .48-.189.914-.567 1.257-.354.343-.802.526-1.345.526ZM96.757 12.34h2.739v9.736c0 1.302-.331 2.399-.992 3.336-.661.937-1.629 1.669-2.88 2.171-1.252.503-2.739.754-4.486.754l-.472-2.468c1.912-.022 3.352-.365 4.32-.982.992-.617 1.488-1.531 1.488-2.697v-.046l.401-.137c-.378.526-.897.983-1.558 1.371-.661.366-1.44.549-2.361.549-1.039 0-1.96-.252-2.739-.731a5.116 5.116 0 0 1-1.865-2.034c-.449-.892-.661-1.92-.661-3.108 0-1.189.212-2.217.661-3.108a4.962 4.962 0 0 1 1.865-2.034c.779-.48 1.7-.732 2.739-.732.543 0 1.039.069 1.487.229.472.137.874.32 1.228.571.354.229.661.48.897.777l.189-1.417Zm-5.832 5.714c0 .959.26 1.736.756 2.331.519.571 1.204.868 2.054.868.496 0 .944-.114 1.346-.366.401-.251.731-.639.991-1.119s.402-1.052.402-1.714c0-.686-.142-1.257-.402-1.737-.26-.48-.59-.823-1.015-1.074a2.467 2.467 0 0 0-1.322-.389c-.85 0-1.535.297-2.054.892-.496.571-.756 1.348-.756 2.308ZM108.443 23.767l-.236-1.394c-.401.48-.85.845-1.345 1.12-.496.274-1.157.411-1.984.411-.779 0-1.487-.137-2.077-.388-.59-.275-1.039-.64-1.37-1.12-.33-.48-.495-1.052-.495-1.714 0-.96.354-1.76 1.062-2.377.732-.64 1.818-1.051 3.258-1.211l2.951-.32v-.8c0-.32-.141-.617-.448-.891-.307-.274-.779-.412-1.417-.412-.566 0-1.062.138-1.487.412-.402.251-.685.663-.827 1.188l-2.597-.914a4.08 4.08 0 0 1 1.795-2.354c.873-.548 1.959-.823 3.258-.823 1.582 0 2.762.389 3.541 1.143.803.754 1.204 1.737 1.204 2.971v7.473h-2.786Zm-.236-4.959-2.549.32c-.52.068-.921.205-1.181.457-.26.228-.401.503-.401.845 0 .32.141.595.401.823.26.206.638.32 1.133.32.543 0 1.015-.091 1.393-.297.402-.206.685-.48.897-.868.213-.389.307-.846.307-1.417v-.183ZM113.094 12.34h2.739l.213 1.12a4.21 4.21 0 0 1 1.345-.914 4.057 4.057 0 0 1 1.747-.366c.756 0 1.441.16 2.078.48a3.646 3.646 0 0 1 1.511 1.326 4.242 4.242 0 0 1 1.653-1.326c.684-.32 1.44-.48 2.243-.48.92 0 1.723.183 2.408.572a3.982 3.982 0 0 1 1.605 1.668c.378.708.567 1.6.567 2.674v6.673h-3.022v-6.285c0-.868-.189-1.531-.591-1.965-.401-.434-.944-.663-1.676-.663s-1.322.229-1.747.686c-.401.434-.614 1.097-.614 1.988v6.239h-3.022v-6.285c0-.868-.189-1.531-.543-1.965-.354-.434-.873-.663-1.605-.663s-1.299.229-1.7.686c-.378.434-.567 1.097-.567 1.965v6.262h-3.022V12.34ZM133.446 12.34h3.022v11.427h-3.022V12.34Zm1.534-1.462c-.566 0-1.039-.183-1.393-.526a1.719 1.719 0 0 1-.543-1.257c0-.502.189-.914.543-1.257.354-.342.827-.525 1.393-.525.543 0 .992.183 1.346.525.378.343.567.755.567 1.257 0 .48-.189.914-.567 1.257-.354.343-.803.526-1.346.526Z" style="fillRule: nonzero; clipRule: evenodd; stroke-linejoin: round; stroke-miterlimit: 2;" class="fills" data-testid="svg-path"/></g></g></g></svg>